# xmcd
#
# Track frame offsets:
#	150
#	11213
#	21603
#	31224
#	45112
#	56753
#	66251
#	77959
#	93683
#	107879
#	123721
#
# Disc length: 1783 seconds
#
# Revision: 1
# Processed by: cddbd v1.5.2PL0 Copyright (c) Steve Scherf et al.
# Submitted via: audiograbber 1.83.01
#
DISCID=9a06f50b
DTITLE=Dolly Parton - The Box Set Series [Disk 1]
DYEAR=2014
DGENRE=Country
TTITLE0=Dumb Blond
TTITLE1=Put it off until tomorrow
TTITLE2=Something Fishy
TTITLE3=Just because I'm a woman
TTITLE4=I'm not worth the tears
TTITLE5=Mine
TTITLE6=Last thing on my mind (with Porter Wagoner)
TTITLE7=My Blue Ridge Mountain Boy
TTITLE8=Mule Skinner Blues (Blue Yodel No.8)
TTITLE9=Daddy's Moonshine Still
TTITLE10=Better move it on home (with Porter Wagoner)
EXTD=
EXTT0=
EXTT1=
EXTT2=
EXTT3=
EXTT4=
EXTT5=
EXTT6=
EXTT7=
EXTT8=
EXTT9=
EXTT10=
PLAYORDER=
